<?xml version="1.0" standalone="no"?><!DOCTYPE svg PUBLIC "-//W3C//DTD SVG 1.1//EN" "http://www.w3.org/Graphics/SVG/1.1/DTD/svg11.dtd"><svg t="1713406012203" class="icon" viewBox="0 0 1024 1024" version="1.1" xmlns="http://www.w3.org/2000/svg" p-id="3952" width="16" height="16" xmlns:xlink="http://www.w3.org/1999/xlink"><path d="M340.258671 152.653273a12.895952 12.895952 0 0 0-12.947127 12.895952c0 7.113243 5.782709 12.844778 12.947127 12.844778h190.010594c7.164418 0 12.947126-5.731534 12.947127-12.844778a12.895952 12.895952 0 0 0-12.947127-12.895952H340.258671z m190.010594-68.676062c37.562019 0 69.238981 25.075462 79.013294 59.362319l111.304348 0.051175c31.77931 0.204698 57.417691 10.490755 73.281759 32.649275 13.612394 19.036882 19.036882 43.498251 17.655172 70.978911L811.370315 912.951524c2.149325 28.248276-3.172814 53.221389-16.785208 73.947027-15.966417 24.205497-42.014193 36.333833-74.305247 36.640879H160.943528c-38.892554-1.535232-67.703748-10.695452-85.717141-31.165217-16.734033-18.985707-24.051974-45.033483-23.744928-76.761619V247.684158c-0.665267-30.704648 7.88086-56.598901 26.508346-75.738131 19.241579-19.650975 47.694553-28.350625 84.284258-28.606497h99.022489c9.723138-34.286857 41.4001-59.362319 78.962119-59.362319h190.010594z m0 163.092854H340.258671c-27.941229 0-52.556122-13.817091-67.396702-35.003298H162.478761c-19.5998 0.102349-30.806997 3.582209-34.90095 7.77851-4.656872 4.75922-7.369115 12.895952-7.062069 27.173614v668.849575c-0.153523 16.631684 2.661069 26.713043 6.652674 31.216392 2.763418 3.121639 14.635882 6.908546 35.054473 7.727336h557.801099c10.234883-0.102349 14.328836-2.046977 16.682859-5.578011 4.656872-7.062069 6.806197-17.092254 5.629185-33.672764l0.051174-670.18011c0.716442-14.994103-1.381709-24.666067-4.912743-29.57881-1.330535-1.791104-5.936232-3.684558-17.194603-3.735732h-122.665067c-14.84058 21.186207-39.455472 35.003298-67.396702 35.003298zM880.455772 0C931.323138 0 972.569715 40.990705 972.569715 91.602199v720.638081c0 50.56032-41.246577 91.602199-92.113943 91.602199h-100.1995v-68.727237h100.148326c12.742429 0 23.028486-10.234883 23.028485-22.874962V91.551024a22.977311 22.977311 0 0 0-23.028485-22.874962H493.730735c-12.691254 0-23.028486 10.234883-23.028486 22.874962v8.034383h-69.085457v-8.034383C401.616792 40.990705 442.863368 0 493.730735 0H880.455772zM419.681359 601.350525c19.088056 0 34.542729 15.352324 34.542729 34.338031 0 18.934533-15.454673 34.338031-34.542729 34.338031H212.373813a34.44038 34.44038 0 0 1-34.593903-34.286857c0-18.985707 15.505847-34.389205 34.593903-34.389205h207.307546z m207.358721-137.352124c19.036882 0 34.542729 15.352324 34.542729 34.338031 0 18.934533-15.505847 34.338031-34.542729 34.338031H212.373813a34.44038 34.44038 0 0 1-34.593903-34.286857c0-18.985707 15.505847-34.389205 34.593903-34.389205h414.666267z m0-137.352124c19.036882 0 34.542729 15.352324 34.542729 34.338031 0 18.985707-15.505847 34.338031-34.542729 34.338031H212.373813a34.44038 34.44038 0 0 1-34.593903-34.286857c0-18.985707 15.505847-34.389205 34.593903-34.389205h414.666267z" fill="#afb1b3" p-id="3953"></path></svg>