<?xml version="1.0" standalone="no"?><!DOCTYPE svg PUBLIC "-//W3C//DTD SVG 1.1//EN" "http://www.w3.org/Graphics/SVG/1.1/DTD/svg11.dtd"><svg t="1713325158180" class="icon" viewBox="0 0 1024 1024" version="1.1" xmlns="http://www.w3.org/2000/svg" p-id="25241" width="16" height="16" xmlns:xlink="http://www.w3.org/1999/xlink"><path d="M67.2 467.2c3.2-28.8 9.6-57.6 12.8-89.6l9.6-28.8c38.4-96 99.2-169.6 188.8-224 67.2-38.4 137.6-57.6 217.6-57.6 51.2 0 105.6 0 156.8 16 41.6 12.8 80 28.8 115.2 54.4 28.8 22.4 57.6 44.8 83.2 73.6 54.4 64 92.8 134.4 99.2 217.6 3.2 25.6 9.6 54.4 9.6 80-3.2 80-22.4 153.6-67.2 217.6-9.6 16-19.2 32-25.6 48 9.6-9.6 19.2-19.2 28.8-32 0 25.6-3.2 44.8-16 60.8-32 41.6-67.2 76.8-112 92.8-51.2 19.2-102.4 44.8-160 51.2-25.6 3.2-51.2 9.6-76.8 12.8h-19.2l28.8-9.6h-19.2c-57.6-3.2-112-16-163.2-38.4-86.4-38.4-153.6-105.6-201.6-188.8-54.4-96-70.4-198.4-44.8-307.2 6.4-32 16-67.2 32-96 35.2-60.8 83.2-115.2 137.6-163.2 3.2-3.2 6.4-3.2 9.6-6.4l9.6-9.6-3.2-3.2c-57.6 32-105.6 76.8-140.8 131.2-38.4 54.4-60.8 115.2-70.4 182.4-3.2-6.4-3.2-9.6-3.2-16-3.2 28.8-6.4 54.4-9.6 80-6.4-12.8-6.4-28.8-6.4-48z m457.6 454.4c25.6 0 51.2 0 73.6-6.4 25.6-6.4 48-16 73.6-25.6 54.4-22.4 99.2-57.6 134.4-102.4l6.4-6.4c-12.8-9.6 0-12.8 3.2-19.2 16-32 38.4-60.8 51.2-92.8 28.8-73.6 38.4-147.2 25.6-227.2-12.8-76.8-44.8-150.4-96-208-48-54.4-108.8-99.2-179.2-121.6-38.4-12.8-80-25.6-121.6-19.2-112 12.8-201.6 67.2-272 153.6-83.2 102.4-118.4 220.8-96 348.8 25.6 134.4 99.2 230.4 220.8 291.2 57.6 28.8 115.2 38.4 176 35.2z m236.8-761.6c153.6 124.8 198.4 288 160 480 83.2-128-16-428.8-160-480z m160 313.6c0 124.8-32 236.8-112 332.8 86.4-96 121.6-208 112-332.8z" fill="#6E6E6E" p-id="25242"></path><path d="M297.6 486.4l64 92.8c3.2 3.2 6.4 6.4 12.8 9.6 3.2 3.2 9.6 3.2 12.8 3.2h6.4v6.4h-80v-6.4h6.4c6.4 0 9.6 0 12.8-3.2 3.2-3.2 0-6.4 0-9.6l-48-73.6-41.6 57.6c-3.2 3.2-6.4 6.4-6.4 9.6 0 3.2-3.2 3.2-3.2 6.4s3.2 6.4 3.2 6.4c3.2 0 6.4 3.2 12.8 3.2h3.2v6.4h-67.2v-6.4h6.4c6.4 0 12.8 0 16-3.2l9.6-9.6 57.6-83.2-60.8-92.8c0-3.2-3.2-6.4-6.4-6.4-3.2-3.2-6.4-3.2-12.8-3.2h-6.4V384h76.8v6.4h-6.4c-6.4 0-12.8 0-12.8 3.2s0 6.4 3.2 9.6l41.6 60.8 41.6-60.8c3.2-6.4 6.4-9.6 3.2-12.8 0-3.2-6.4-3.2-12.8-3.2h-9.6v-6.4h73.6v6.4h-9.6c-3.2 0-6.4 0-9.6 3.2-3.2 3.2-6.4 3.2-9.6 6.4l-60.8 89.6z m233.6 0l64 92.8c3.2 3.2 6.4 6.4 12.8 9.6 3.2 3.2 9.6 3.2 12.8 3.2h6.4v6.4H544v-6.4h6.4c6.4 0 9.6 0 12.8-3.2 3.2-3.2 3.2-6.4 0-9.6l-48-73.6-41.6 57.6c-3.2 3.2-3.2 6.4-6.4 9.6 0 3.2-3.2 3.2-3.2 6.4s0 6.4 3.2 6.4 6.4 3.2 12.8 3.2h3.2v6.4H416v-6.4h6.4c6.4 0 12.8 0 16-3.2l9.6-9.6 57.6-83.2-60.8-92.8c0-3.2-3.2-6.4-6.4-6.4-3.2-3.2-6.4-3.2-12.8-3.2h-6.4V384h76.8v6.4h-6.4c-6.4 0-12.8 0-12.8 3.2s0 6.4 3.2 9.6l41.6 60.8 41.6-60.8c3.2-6.4 6.4-9.6 3.2-12.8 0-3.2-6.4-3.2-12.8-3.2h-9.6v-6.4h73.6v6.4h-9.6c-3.2 0-6.4 0-9.6 3.2-3.2 3.2-6.4 3.2-9.6 6.4l-57.6 89.6z m176 99.2c0 3.2 0 6.4 3.2 6.4s6.4 3.2 12.8 3.2h48c16 0 32-3.2 44.8-9.6 12.8-6.4 22.4-19.2 28.8-32l9.6 3.2-16 48h-188.8v-6.4h12.8c6.4 0 9.6 0 12.8-3.2 3.2-3.2 3.2-3.2 3.2-6.4v-176c0-3.2 0-6.4-3.2-6.4-3.2-3.2-9.6-3.2-12.8-3.2h-12.8v-6.4h86.4v6.4h-12.8c-3.2 0-9.6 0-12.8 3.2-3.2 0-3.2 3.2-3.2 6.4v172.8z" fill="#6E6E6E" p-id="25243"></path></svg>