<?xml version="1.0" standalone="no"?><!DOCTYPE svg PUBLIC "-//W3C//DTD SVG 1.1//EN" "http://www.w3.org/Graphics/SVG/1.1/DTD/svg11.dtd"><svg t="1713322428244" class="icon" viewBox="0 0 1024 1024" version="1.1" xmlns="http://www.w3.org/2000/svg" p-id="19513" width="16" height="16" xmlns:xlink="http://www.w3.org/1999/xlink"><path d="M160 64h704a64 64 0 0 1 64 64v768a64 64 0 0 1-64 64h-704a64 64 0 0 1-64-64V128a64 64 0 0 1 64-64z m48 64a48 48 0 0 0-48 48v672c0 26.496 21.504 48 48 48h608a48 48 0 0 0 48-48V176a48 48 0 0 0-48-48h-608z m54.4 517.568a38.4 38.4 0 0 1 0-76.8h512a38.4 38.4 0 0 1 0 76.8h-512z m0 166.4a38.4 38.4 0 0 1 0-76.8h512a38.4 38.4 0 0 1 0 76.8h-512zM327.04 211.2h37.504l111.04 263.04h-35.2l-30.016-73.6H280.768l-30.016 73.6h-34.752L327.04 211.2z m-35.968 163.968h109.056l-53.376-131.52h-1.536l-54.144 131.52zM504 211.2h115.328c64.832 0 97.216 25.792 97.216 77.44 0 51.84-32.768 78.08-97.6 78.08h-82.56v107.52h-32.384V211.2z m32.384 26.176V340.48h81.024c22.912 0 39.488-4.48 50.56-12.928 10.624-8.448 16.192-21.376 16.192-39.04 0-17.664-5.568-30.592-16.64-38.336-11.008-8.832-27.648-12.864-50.112-12.864H536.32z m223.616-26.176h32v263.04h-32V211.2z" fill="#6E6E6E" p-id="19514"></path></svg>